<svg width="30" height="24" viewBox="0 0 30 24" fill="none" xmlns="http://www.w3.org/2000/svg">
<path fill-rule="evenodd" clip-rule="evenodd" d="M17.999 23.1539H24.6667V13H28L15.3333 1L2 13H6V23.1539H12.6657V15.6667H17.999V23.1539Z" fill="black"/>
<path d="M17.999 23.1539H17.499V23.6539H17.999V23.1539ZM24.6667 23.1539V23.6539H25.1667V23.1539H24.6667ZM24.6667 13V12.5H24.1667V13H24.6667ZM28 13V13.5H29.2548L28.3439 12.637L28 13ZM15.3333 1L15.6772 0.637024L15.342 0.31949L14.9989 0.628353L15.3333 1ZM2 13L1.66552 12.6284L0.697021 13.5H2V13ZM6 13H6.5V12.5H6V13ZM6 23.1539H5.5V23.6539H6V23.1539ZM12.6657 23.1539V23.6539H13.1657V23.1539H12.6657ZM12.6657 15.6667V15.1667H12.1657V15.6667H12.6657ZM17.999 15.6667H18.499V15.1667H17.999V15.6667ZM18 15.6667H18.5V15.1667H18V15.6667ZM17.999 23.6539H24.6667V22.6539H17.999V23.6539ZM25.1667 23.1539V13H24.1667V23.1539H25.1667ZM24.6667 13.5H28V12.5H24.6667V13.5ZM28.3439 12.637L15.6772 0.637024L14.9895 1.36298L27.6561 13.363L28.3439 12.637ZM14.9989 0.628353L1.66552 12.6284L2.33448 13.3716L15.6678 1.37165L14.9989 0.628353ZM2 13.5H6V12.5H2V13.5ZM5.5 13V23.1539H6.5V13H5.5ZM6 23.6539H12.6657V22.6539H6V23.6539ZM13.1657 23.1539V15.6667H12.1657V23.1539H13.1657ZM12.6657 16.1667H17.999V15.1667H12.6657V16.1667ZM17.499 15.6667V23.1539H18.499V15.6667H17.499ZM12.6667 16.1667H18V15.1667H12.6667V16.1667ZM17.5 15.6667V23.1539H18.5V15.6667H17.5Z" fill="black"/>
</svg>
