<svg width="178" height="112" viewBox="0 0 178 112" fill="none" xmlns="http://www.w3.org/2000/svg">
<path d="M71 11.8936H103.544L106.485 14.8351C106.485 14.8351 100.051 36.377 77.3756 48.0765L74.283 46.291C74.283 46.291 96.3863 35.3214 102.428 15.1507H71.0103L71 11.8936Z" fill="black"/>
<path d="M103.73 5.27451C103.73 5.27451 108.099 8.52784 110.399 12.7339L112.433 10.7006C112.433 10.7006 109.586 5.76251 105.961 3.64784L103.73 5.27451Z" fill="black"/>
<path d="M108.297 1.62666C108.297 1.62666 112.666 4.88 114.967 9.08609L117 7.05276C117 7.05276 114.153 2.11466 110.528 0L108.297 1.62666Z" fill="black"/>
<path d="M49.3872 94V71.9609H57.1069C59.7811 71.9609 61.8094 72.4756 63.1919 73.5049C64.5744 74.5241 65.2656 76.0226 65.2656 78.0005C65.2656 79.0802 64.9881 80.0339 64.4331 80.8613C63.8781 81.6787 63.1061 82.2791 62.1172 82.6626C63.2474 82.9451 64.1354 83.5153 64.7812 84.373C65.4372 85.2308 65.7651 86.2803 65.7651 87.5215C65.7651 89.6406 65.089 91.2451 63.7368 92.335C62.3846 93.4248 60.4572 93.9798 57.9546 94H49.3872ZM53.9282 84.4033V90.3521H57.8184C58.888 90.3521 59.7205 90.0998 60.3159 89.5952C60.9214 89.0806 61.2241 88.3742 61.2241 87.4761C61.2241 85.4578 60.1797 84.4336 58.0908 84.4033H53.9282ZM53.9282 81.1943H57.2886C59.5793 81.154 60.7246 80.2407 60.7246 78.4546C60.7246 77.4556 60.432 76.7391 59.8467 76.3052C59.2715 75.8612 58.3582 75.6392 57.1069 75.6392H53.9282V81.1943ZM78.707 92.335C77.6273 93.6468 76.1338 94.3027 74.2266 94.3027C72.4707 94.3027 71.1286 93.7982 70.2002 92.7891C69.2819 91.7799 68.8127 90.3016 68.7925 88.354V77.6221H73.167V88.2026C73.167 89.908 73.944 90.7607 75.498 90.7607C76.9814 90.7607 78.0007 90.2461 78.5557 89.2168V77.6221H82.9453V94H78.8281L78.707 92.335ZM95.4482 81.7241C94.8529 81.6434 94.3281 81.603 93.874 81.603C92.2191 81.603 91.1343 82.1631 90.6196 83.2832V94H86.2451V77.6221H90.3774L90.4985 79.5747C91.3765 78.0711 92.5924 77.3193 94.1465 77.3193C94.6309 77.3193 95.085 77.3849 95.5088 77.5161L95.4482 81.7241ZM96.3413 85.6597C96.3413 84.035 96.6541 82.5869 97.2798 81.3154C97.9054 80.0439 98.8035 79.0601 99.9741 78.3638C101.155 77.6675 102.522 77.3193 104.076 77.3193C106.286 77.3193 108.087 77.9954 109.48 79.3477C110.883 80.6999 111.665 82.5365 111.826 84.8574L111.856 85.9775C111.856 88.4902 111.155 90.5085 109.752 92.0322C108.35 93.5459 106.468 94.3027 104.106 94.3027C101.745 94.3027 99.8581 93.5459 98.4453 92.0322C97.0426 90.5186 96.3413 88.46 96.3413 85.8564V85.6597ZM100.716 85.9775C100.716 87.5316 101.008 88.7223 101.594 89.5498C102.179 90.3672 103.017 90.7759 104.106 90.7759C105.166 90.7759 105.993 90.3722 106.589 89.5649C107.184 88.7476 107.482 87.4458 107.482 85.6597C107.482 84.1359 107.184 82.9552 106.589 82.1177C105.993 81.2801 105.156 80.8613 104.076 80.8613C103.007 80.8613 102.179 81.2801 101.594 82.1177C101.008 82.9451 100.716 84.2318 100.716 85.9775ZM113.915 85.6899C113.915 83.1772 114.51 81.154 115.701 79.6201C116.902 78.0863 118.517 77.3193 120.545 77.3193C122.341 77.3193 123.739 77.9349 124.738 79.166L124.919 77.6221H128.885V93.4551C128.885 94.888 128.557 96.1343 127.901 97.1938C127.256 98.2534 126.342 99.0607 125.162 99.6157C123.981 100.171 122.598 100.448 121.014 100.448C119.813 100.448 118.643 100.206 117.502 99.7217C116.362 99.2474 115.499 98.6318 114.914 97.875L116.852 95.2109C117.941 96.432 119.263 97.0425 120.817 97.0425C121.978 97.0425 122.881 96.7297 123.527 96.104C124.173 95.4884 124.496 94.6105 124.496 93.4702V92.5923C123.486 93.7326 122.16 94.3027 120.515 94.3027C118.547 94.3027 116.952 93.5358 115.731 92.002C114.521 90.458 113.915 88.4146 113.915 85.8716V85.6899ZM118.29 86.0078C118.29 87.4912 118.587 88.6567 119.183 89.5044C119.778 90.342 120.595 90.7607 121.635 90.7607C122.967 90.7607 123.92 90.2612 124.496 89.2622V82.375C123.91 81.376 122.967 80.8765 121.665 80.8765C120.616 80.8765 119.788 81.3053 119.183 82.1631C118.587 83.0208 118.29 84.3024 118.29 86.0078Z" fill="black"/>
</svg>
