<svg width="111" height="31" viewBox="0 0 111 31" fill="none" xmlns="http://www.w3.org/2000/svg">
<path d="M0 6.4321H17.5998L19.1906 8.02288C19.1906 8.02288 15.7112 19.6728 3.44794 26L1.77548 25.0344C1.77548 25.0344 13.729 19.102 16.9965 8.19355H0.00557915L0 6.4321Z" fill="black"/>
<path d="M17.7002 2.85249C17.7002 2.85249 20.0629 4.61191 21.307 6.88658L22.4066 5.78695C22.4066 5.78695 20.8671 3.1164 18.9066 1.97278L17.7002 2.85249Z" fill="black"/>
<path d="M20.1699 0.879709C20.1699 0.879709 22.5326 2.63913 23.7767 4.9138L24.8764 3.81417C24.8764 3.81417 23.3369 1.14362 21.3764 0L20.1699 0.879709Z" fill="black"/>
<path d="M33.46 26V9.64844H39.1875C41.1715 9.64844 42.6764 10.0303 43.7021 10.7939C44.7279 11.5501 45.2407 12.6619 45.2407 14.1294C45.2407 14.9305 45.0348 15.638 44.623 16.252C44.2113 16.8584 43.6385 17.3039 42.9048 17.5884C43.7433 17.798 44.4022 18.221 44.8813 18.8574C45.368 19.4938 45.6113 20.2725 45.6113 21.1934C45.6113 22.7656 45.1097 23.9561 44.1064 24.7646C43.1032 25.5732 41.6732 25.985 39.8164 26H33.46ZM36.8291 18.8799V23.2935H39.7153C40.509 23.2935 41.1266 23.1063 41.5684 22.7319C42.0176 22.3501 42.2422 21.826 42.2422 21.1597C42.2422 19.6623 41.4673 18.9023 39.9175 18.8799H36.8291ZM36.8291 16.499H39.3223C41.0218 16.4691 41.8716 15.7915 41.8716 14.4663C41.8716 13.7251 41.6545 13.1935 41.2202 12.8716C40.7935 12.5422 40.1159 12.3774 39.1875 12.3774H36.8291V16.499ZM55.2134 24.7646C54.4123 25.738 53.3042 26.2246 51.8892 26.2246C50.5864 26.2246 49.5907 25.8503 48.9019 25.1016C48.2205 24.3529 47.8724 23.256 47.8574 21.811V13.8486H51.103V21.6987C51.103 22.964 51.6795 23.5967 52.8325 23.5967C53.9331 23.5967 54.6893 23.2148 55.1011 22.4512V13.8486H58.3579V26H55.3032L55.2134 24.7646ZM67.6343 16.8921C67.1925 16.8322 66.8032 16.8022 66.4663 16.8022C65.2384 16.8022 64.4336 17.2178 64.0518 18.0488V26H60.8062V13.8486H63.8721L63.9619 15.2974C64.6133 14.1818 65.5155 13.624 66.6685 13.624C67.0278 13.624 67.3647 13.6727 67.6792 13.77L67.6343 16.8921ZM68.2969 19.812C68.2969 18.6066 68.529 17.5322 68.9932 16.5889C69.4574 15.6455 70.1237 14.9155 70.9922 14.3989C71.8682 13.8823 72.8826 13.624 74.0356 13.624C75.6753 13.624 77.0117 14.1257 78.0449 15.1289C79.0856 16.1322 79.6659 17.4948 79.7856 19.2168L79.8081 20.0479C79.8081 21.9121 79.2878 23.4095 78.2471 24.54C77.2064 25.6631 75.8101 26.2246 74.0581 26.2246C72.3062 26.2246 70.9061 25.6631 69.8579 24.54C68.8172 23.417 68.2969 21.8896 68.2969 19.958V19.812ZM71.5425 20.0479C71.5425 21.2008 71.7596 22.0843 72.1938 22.6982C72.6281 23.3047 73.2495 23.6079 74.0581 23.6079C74.8442 23.6079 75.4582 23.3084 75.8999 22.7095C76.3416 22.103 76.5625 21.1372 76.5625 19.812C76.5625 18.6815 76.3416 17.8055 75.8999 17.1841C75.4582 16.5627 74.8368 16.252 74.0356 16.252C73.242 16.252 72.6281 16.5627 72.1938 17.1841C71.7596 17.798 71.5425 18.7526 71.5425 20.0479ZM81.3354 19.8345C81.3354 17.9702 81.7772 16.4691 82.6606 15.3311C83.5516 14.193 84.7495 13.624 86.2544 13.624C87.5871 13.624 88.624 14.0807 89.3652 14.9941L89.5 13.8486H92.4424V25.5957C92.4424 26.6589 92.1991 27.5835 91.7124 28.3696C91.2332 29.1558 90.5557 29.7547 89.6797 30.1665C88.8037 30.5783 87.778 30.7842 86.6025 30.7842C85.7116 30.7842 84.8431 30.6045 83.9971 30.2451C83.151 29.8932 82.5109 29.4365 82.0767 28.875L83.5142 26.8984C84.3228 27.8044 85.3035 28.2573 86.4565 28.2573C87.3175 28.2573 87.9876 28.0252 88.4668 27.561C88.946 27.1043 89.1855 26.453 89.1855 25.6069V24.9556C88.4368 25.8016 87.4523 26.2246 86.2319 26.2246C84.772 26.2246 83.589 25.6556 82.6831 24.5176C81.7847 23.3721 81.3354 21.856 81.3354 19.9692V19.8345ZM84.5811 20.0703C84.5811 21.1709 84.8019 22.0356 85.2437 22.6646C85.6854 23.286 86.2918 23.5967 87.063 23.5967C88.0513 23.5967 88.7588 23.2261 89.1855 22.4849V17.375C88.7513 16.6338 88.0513 16.2632 87.0854 16.2632C86.3068 16.2632 85.6929 16.5814 85.2437 17.2178C84.8019 17.8542 84.5811 18.805 84.5811 20.0703Z" fill="black"/>
</svg>
